<?xml version="1.0" encoding="utf-8"?>
<!-- Generator: Adobe Illustrator 19.2.1, SVG Export Plug-In . SVG Version: 6.00 Build 0)  -->
<svg version="1.1" id="layer" xmlns="http://www.w3.org/2000/svg" xmlns:xlink="http://www.w3.org/1999/xlink" x="0px" y="0px"
	 viewBox="0 0 652 652" style="enable-background:new 0 0 652 652;" xml:space="preserve">
<style type="text/css">
	.st0{fill:#333333;}
</style>
<g>
	<g>
		<g>
			<path class="st0" d="M320.1,188.9c-3.7,0-6.8,3-6.8,6.8c0,3.7,3,6.8,6.8,6.8c3.7,0,6.8-3,6.8-6.8
				C326.8,191.9,323.8,188.9,320.1,188.9z"/>
			<path class="st0" d="M337.1,185.1c0-3.7-3-6.8-6.8-6.8c-3.7,0-6.8,3-6.8,6.8c0,3.7,3,6.8,6.8,6.8
				C334.1,191.8,337.1,188.8,337.1,185.1z"/>
			<path class="st0" d="M337.1,206.1c0-3.7-3-6.8-6.8-6.8c-3.7,0-6.8,3-6.8,6.8c0,3.7,3,6.8,6.8,6.8
				C334.1,212.9,337.1,209.9,337.1,206.1z"/>
			<path class="st0" d="M342,188.5c-3.7,0-6.8,3-6.8,6.8c0,3.7,3,6.8,6.8,6.8c3.7,0,6.8-3,6.8-6.8
				C348.8,191.6,345.7,188.5,342,188.5z"/>
			<path class="st0" d="M354.7,177.9c-3.7,0-6.8,3-6.8,6.8c0,3.7,3,6.8,6.8,6.8s6.8-3,6.8-6.8C361.5,180.9,358.4,177.9,354.7,177.9z
				"/>
			<path class="st0" d="M354.6,199.6c-3.7,0-6.8,3-6.8,6.8c0,3.7,3,6.8,6.8,6.8c3.7,0,6.8-3,6.8-6.8
				C361.4,202.7,358.3,199.6,354.6,199.6z"/>
			<path class="st0" d="M341.5,223.7c3.7,0,6.8-3,6.8-6.8c0-3.7-3-6.8-6.8-6.8c-3.7,0-6.8,3-6.8,6.8
				C334.8,220.6,337.8,223.7,341.5,223.7z"/>
			<circle class="st0" cx="331" cy="230" r="6.8"/>
			<path class="st0" d="M320.5,251.1c3.7,0,6.8-3,6.8-6.8s-3-6.8-6.8-6.8c-3.7,0-6.8,3-6.8,6.8C313.7,248.1,316.7,251.1,320.5,251.1
				z"/>
			<circle class="st0" cx="369" cy="195.3" r="6.8"/>
			<path class="st0" d="M368.3,211.1c-3.7,0-6.8,3-6.8,6.8c0,3.7,3,6.8,6.8,6.8c3.7,0,6.8-3,6.8-6.8
				C375,214.2,372,211.1,368.3,211.1z"/>
			<path class="st0" d="M384.1,201c-3.7,0-6.8,3-6.8,6.8c0,3.7,3,6.8,6.8,6.8s6.8-3,6.8-6.8C390.9,204,387.8,201,384.1,201z"/>
			<path class="st0" d="M389,230.6c0-3.7-3.1-6.8-6.8-6.8c-3.7,0-6.7,3-6.7,6.8s3,6.8,6.7,6.8C386,237.4,389,234.3,389,230.6z"/>
			<path class="st0" d="M372.6,240.7c0-3.7-3-6.8-6.8-6.8c-3.7,0-6.8,3-6.8,6.8c0,3.7,3,6.8,6.8,6.8
				C369.6,247.5,372.6,244.5,372.6,240.7z"/>
			<path class="st0" d="M342.6,250.2c3.7,0,6.8-3,6.8-6.8c0-3.7-3-6.8-6.8-6.8c-3.7,0-6.8,3-6.8,6.8
				C335.8,247.2,338.9,250.2,342.6,250.2z"/>
			<path class="st0" d="M332,266c3.7,0,6.8-3,6.8-6.8c0-3.7-3-6.8-6.8-6.8c-3.7,0-6.8,3-6.8,6.8C325.2,263,328.3,266,332,266z"/>
			<path class="st0" d="M320.4,282.8c3.7,0,6.8-3,6.8-6.8c0-3.7-3-6.8-6.8-6.8c-3.7,0-6.8,3-6.8,6.8
				C313.6,279.8,316.7,282.8,320.4,282.8z"/>
			<path class="st0" d="M360,228.4c0-3.7-3-6.8-6.8-6.8c-3.7,0-6.7,3-6.7,6.8c0,3.7,3,6.8,6.7,6.8C357,235.2,360,232.2,360,228.4z"
				/>
			<path class="st0" d="M399.9,213.3c-3.7,0-6.8,3-6.8,6.8c0,3.7,3,6.8,6.8,6.8c3.7,0,6.8-3,6.8-6.8S403.7,213.3,399.9,213.3z"/>
			<path class="st0" d="M397.4,237.7c-3.7,0-6.7,3-6.7,6.8c0,3.7,3,6.8,6.7,6.8c3.7,0,6.8-3,6.8-6.8
				C404.2,240.7,401.1,237.7,397.4,237.7z"/>
			<path class="st0" d="M414,252.2c-3.7,0-6.8,3-6.8,6.8c0,3.7,3,6.8,6.8,6.8c3.7,0,6.8-3,6.8-6.8
				C420.8,255.3,417.8,252.2,414,252.2z"/>
			<path class="st0" d="M393.5,261.7c-3.7,0-6.8,3-6.8,6.8c0,3.7,3,6.8,6.8,6.8c3.7,0,6.8-3,6.8-6.8
				C400.3,264.8,397.3,261.7,393.5,261.7z"/>
			<path class="st0" d="M386.2,254.6c0-3.7-3.1-6.8-6.8-6.8c-3.7,0-6.7,3-6.7,6.8c0,3.7,3,6.8,6.7,6.8
				C383.1,261.4,386.2,258.4,386.2,254.6z"/>
			<circle class="st0" cx="369.3" cy="272.6" r="6.8"/>
			<path class="st0" d="M344.8,281.9c3.7,0,6.8-3,6.8-6.8c0-3.7-3-6.8-6.8-6.8c-3.7,0-6.8,3-6.8,6.8
				C338,278.9,341.1,281.9,344.8,281.9z"/>
			<path class="st0" d="M362.1,257.6c0-3.7-3-6.8-6.8-6.8c-3.7,0-6.8,3-6.8,6.8c0,3.7,3,6.8,6.8,6.8
				C359.1,264.3,362.1,261.3,362.1,257.6z"/>
			<path class="st0" d="M409.3,277.6c-3.7,0-6.8,3-6.8,6.8c0,3.7,3,6.8,6.8,6.8c3.7,0,6.8-3,6.8-6.8
				C416,280.6,413,277.6,409.3,277.6z"/>
			<path class="st0" d="M383.6,282.4c-3.7,0-6.8,3.1-6.8,6.8c0,3.7,3,6.8,6.8,6.8c3.7,0,6.8-3,6.8-6.8
				C390.4,285.5,387.4,282.4,383.6,282.4z"/>
			<path class="st0" d="M372.5,302.1c-3.7,0-6.8,3-6.8,6.8s3,6.8,6.8,6.8c3.7,0,6.8-3,6.8-6.8C379.3,305.2,376.3,302.1,372.5,302.1z
				"/>
			<path class="st0" d="M358.1,285.2c-3.7,0-6.8,3.1-6.8,6.8c0,3.7,3,6.8,6.8,6.8c3.7,0,6.8-3,6.8-6.8
				C364.9,288.3,361.9,285.2,358.1,285.2z"/>
			<path class="st0" d="M346.4,305.5c-3.7,0-6.8,3-6.8,6.8c0,3.7,3,6.8,6.8,6.8c3.7,0,6.8-3,6.8-6.8
				C353.1,308.6,350.1,305.5,346.4,305.5z"/>
			<path class="st0" d="M332.6,286.9c-3.7,0-6.8,3-6.8,6.8c0,3.7,3,6.8,6.8,6.8c3.7,0,6.8-3,6.8-6.8
				C339.4,289.9,336.3,286.9,332.6,286.9z"/>
			<circle class="st0" cx="320.5" cy="313.6" r="6.8"/>
			<path class="st0" d="M307.5,286.9c-3.7,0-6.8,3-6.8,6.8c0,3.7,3.1,6.8,6.8,6.8c3.7,0,6.8-3,6.8-6.8
				C314.3,289.9,311.2,286.9,307.5,286.9z"/>
			<circle class="st0" cx="293.9" cy="312.4" r="6.8"/>
			<path class="st0" d="M268.4,302.1c-3.7,0-6.8,3.1-6.8,6.8c0,3.7,3,6.8,6.8,6.8c3.7,0,6.8-3,6.8-6.8
				C275.2,305.2,272.2,302.1,268.4,302.1z"/>
			<path class="st0" d="M416.8,226.6c-3.7,0-6.8,3-6.8,6.8c0,3.7,3,6.8,6.8,6.8c3.7,0,6.8-3,6.8-6.8
				C423.6,229.6,420.6,226.6,416.8,226.6z"/>
			<path class="st0" d="M433.8,240.5c-3.7,0-6.8,3-6.8,6.8c0,3.7,3,6.8,6.8,6.8c3.7,0,6.8-3,6.8-6.8
				C440.5,243.6,437.5,240.5,433.8,240.5z"/>
			<circle class="st0" cx="437.2" cy="221.6" r="6.8"/>
			<path class="st0" d="M418.4,201.4c-3.7,0-6.8,3-6.8,6.8c0,3.7,3,6.8,6.8,6.8c3.7,0,6.8-3,6.8-6.8
				C425.2,204.4,422.1,201.4,418.4,201.4z"/>
			<path class="st0" d="M438.3,188.6c-3.7,0-6.8,3-6.8,6.8c0,3.7,3,6.8,6.8,6.8c3.7,0,6.8-3,6.8-6.8
				C445.1,191.6,442,188.6,438.3,188.6z"/>
			<circle class="st0" cx="418.4" cy="183.1" r="6.8"/>
			<circle class="st0" cx="437.1" cy="169.3" r="6.8"/>
			<circle class="st0" cx="416.7" cy="157.6" r="6.8"/>
			<path class="st0" d="M433.8,150c3.7,0,6.8-3,6.8-6.8c0-3.7-3-6.8-6.8-6.8c-3.7,0-6.8,3-6.8,6.8C427,147,430,150,433.8,150z"/>
			<path class="st0" d="M407.3,132.2c0,3.7,3,6.7,6.8,6.7c3.7,0,6.8-3,6.8-6.7c0-3.7-3-6.8-6.8-6.8
				C410.3,125.4,407.3,128.5,407.3,132.2z"/>
			<circle class="st0" cx="409.2" cy="106.9" r="6.8"/>
			<path class="st0" d="M386.9,122.5c0,3.7,3,6.8,6.8,6.8c3.7,0,6.8-3,6.8-6.8c0-3.7-3-6.8-6.8-6.8
				C389.9,115.8,386.9,118.8,386.9,122.5z"/>
			<path class="st0" d="M379.3,129.7c-3.7,0-6.8,3-6.8,6.8c0,3.7,3,6.8,6.8,6.8c3.7,0,6.8-3,6.8-6.8
				C386,132.7,383,129.7,379.3,129.7z"/>
			<circle class="st0" cx="365.9" cy="150.2" r="6.8"/>
			<path class="st0" d="M355.4,126.7c-3.7,0-6.8,3-6.8,6.8c0,3.7,3,6.8,6.8,6.8c3.7,0,6.8-3,6.8-6.8
				C362.2,129.8,359.2,126.7,355.4,126.7z"/>
			<path class="st0" d="M344.7,109.2c-3.7,0-6.8,3-6.8,6.8c0,3.7,3,6.8,6.8,6.8c3.7,0,6.8-3,6.8-6.8
				C351.5,112.3,348.4,109.2,344.7,109.2z"/>
			<path class="st0" d="M332.1,124.9c-3.7,0-6.8,3-6.8,6.8c0,3.7,3,6.8,6.8,6.8c3.7,0,6.8-3,6.8-6.8
				C338.8,127.9,335.8,124.9,332.1,124.9z"/>
			<path class="st0" d="M308,125c-3.7,0-6.8,3-6.8,6.8s3,6.8,6.8,6.8c3.7,0,6.8-3,6.8-6.8C314.8,128.1,311.8,125,308,125z"/>
			<circle class="st0" cx="297.9" cy="147.7" r="6.8"/>
			<path class="st0" d="M302.5,161.3c0,3.7,3,6.8,6.8,6.8c3.7,0,6.8-3,6.8-6.8c0-3.7-3-6.8-6.8-6.8
				C305.5,154.5,302.5,157.5,302.5,161.3z"/>
			<circle class="st0" cx="287.3" cy="162.6" r="6.8"/>
			<path class="st0" d="M272.2,166.4c-3.7,0-6.8,3-6.8,6.8c0,3.7,3,6.8,6.8,6.8c3.7,0,6.8-3,6.8-6.8
				C279,169.5,275.9,166.4,272.2,166.4z"/>
			<path class="st0" d="M256.4,190.5c3.7,0,6.8-3,6.8-6.8c0-3.7-3-6.8-6.8-6.8c-3.7,0-6.8,3-6.8,6.8
				C249.6,187.4,252.6,190.5,256.4,190.5z"/>
			<path class="st0" d="M251.3,160.4c0,3.7,3,6.8,6.8,6.8c3.7,0,6.8-3,6.8-6.8c0-3.7-3-6.8-6.8-6.8
				C254.4,153.6,251.3,156.7,251.3,160.4z"/>
			<path class="st0" d="M233.7,170.9c0,3.7,3,6.8,6.7,6.8c3.7,0,6.8-3,6.8-6.8c0-3.7-3-6.8-6.8-6.8
				C236.7,164.1,233.7,167.2,233.7,170.9z"/>
			<circle class="st0" cx="222" cy="183" r="6.8"/>
			<path class="st0" d="M203.2,176c3.7,0,6.8-3,6.8-6.7c0-3.7-3-6.8-6.8-6.8c-3.7,0-6.8,3-6.8,6.8C196.5,172.9,199.5,176,203.2,176z
				"/>
			<path class="st0" d="M223.7,164.4c3.7,0,6.8-3,6.8-6.8c0-3.7-3-6.8-6.8-6.8c-3.7,0-6.8,3-6.8,6.8
				C216.9,161.4,220,164.4,223.7,164.4z"/>
			<path class="st0" d="M206.8,136.4c-3.7,0-6.8,3-6.8,6.8c0,3.7,3,6.8,6.8,6.8c3.7,0,6.8-3,6.8-6.8
				C213.5,139.4,210.5,136.4,206.8,136.4z"/>
			<path class="st0" d="M226.6,139c3.7,0,6.8-3,6.8-6.8c0-3.7-3-6.8-6.8-6.8c-3.7,0-6.8,3-6.8,6.8S222.9,139,226.6,139z"/>
			<path class="st0" d="M243,139.7c-3.7,0-6.8,3-6.8,6.8c0,3.7,3,6.8,6.8,6.8s6.8-3,6.8-6.8C249.8,142.7,246.7,139.7,243,139.7z"/>
			<circle class="st0" cx="261.3" cy="136.4" r="6.8"/>
			<circle class="st0" cx="274.5" cy="150.3" r="6.8"/>
			<circle class="st0" cx="239.6" cy="195.3" r="6.8"/>
			<path class="st0" d="M320.5,140.1c-3.7,0-6.8,3-6.8,6.8s3.1,6.8,6.8,6.8c3.7,0,6.8-3,6.8-6.8
				C327.3,143.2,324.2,140.1,320.5,140.1z"/>
			<path class="st0" d="M369.3,111.5c-3.7,0-6.8,3-6.8,6.8c0,3.7,3,6.8,6.8,6.8c3.7,0,6.8-3,6.8-6.8
				C376.1,114.6,373,111.5,369.3,111.5z"/>
			<path class="st0" d="M376.9,101.6c0,3.7,3,6.8,6.8,6.8c3.7,0,6.8-3,6.8-6.8c0-3.7-3-6.8-6.8-6.8
				C379.9,94.9,376.9,97.9,376.9,101.6z"/>
			<path class="st0" d="M358.2,105.7c3.7,0,6.8-3,6.8-6.8c0-3.7-3-6.8-6.8-6.8c-3.7,0-6.8,3-6.8,6.8
				C351.4,102.7,354.4,105.7,358.2,105.7z"/>
			<path class="st0" d="M372.6,88.8c3.7,0,6.8-3,6.8-6.8c0-3.7-3-6.8-6.8-6.8c-3.7,0-6.7,3-6.7,6.8
				C365.8,85.8,368.9,88.8,372.6,88.8z"/>
			<path class="st0" d="M346.4,85.5c3.7,0,6.8-3,6.8-6.8c0-3.7-3-6.8-6.8-6.8c-3.7,0-6.8,3-6.8,6.8
				C339.7,82.5,342.7,85.5,346.4,85.5z"/>
			<path class="st0" d="M320.4,84.1c3.7,0,6.8-3,6.8-6.8c0-3.7-3.1-6.8-6.8-6.8c-3.7,0-6.8,3-6.8,6.8
				C313.7,81.1,316.7,84.1,320.4,84.1z"/>
			<circle class="st0" cx="293.9" cy="78.7" r="6.8"/>
			<path class="st0" d="M268.4,88.9c3.7,0,6.8-3,6.8-6.8c0-3.7-3-6.8-6.8-6.8s-6.8,3-6.8,6.8C261.7,85.8,264.7,88.9,268.4,88.9z"/>
			<path class="st0" d="M307.3,104.2c3.7,0,6.8-3,6.8-6.8c0-3.7-3-6.8-6.8-6.8c-3.7,0-6.8,3-6.8,6.8
				C300.6,101.1,303.6,104.2,307.3,104.2z"/>
			<circle class="st0" cx="282.3" cy="99" r="6.8"/>
			<path class="st0" d="M271.2,111.6c-3.7,0-6.8,3-6.8,6.8c0,3.7,3,6.8,6.8,6.8c3.7,0,6.8-3,6.8-6.8
				C277.9,114.7,274.9,111.6,271.2,111.6z"/>
			<path class="st0" d="M246.7,129.3c3.7,0,6.8-3,6.8-6.8c0-3.7-3-6.8-6.8-6.8c-3.7,0-6.8,3-6.8,6.8
				C240,126.3,243,129.3,246.7,129.3z"/>
			<path class="st0" d="M232.4,113.5c3.7,0,6.8-3,6.8-6.8c0-3.7-3-6.8-6.8-6.8c-3.7,0-6.8,3-6.8,6.8
				C225.7,110.5,228.7,113.5,232.4,113.5z"/>
			<path class="st0" d="M256.9,108.5c3.7,0,6.8-3,6.8-6.8c0-3.7-3-6.8-6.8-6.8c-3.7,0-6.8,3-6.8,6.8
				C250.2,105.5,253.2,108.5,256.9,108.5z"/>
			<path class="st0" d="M278.3,133.4c0,3.7,3,6.8,6.8,6.8c3.7,0,6.8-3,6.8-6.8c0-3.7-3-6.8-6.8-6.8
				C281.3,126.6,278.3,129.7,278.3,133.4z"/>
			<path class="st0" d="M295.5,109.2c-3.7,0-6.8,3-6.8,6.8c0,3.7,3,6.8,6.8,6.8c3.7,0,6.8-3,6.8-6.8
				C302.3,112.2,299.3,109.2,295.5,109.2z"/>
			<path class="st0" d="M332.6,104.1c3.7,0,6.8-3,6.8-6.8c0-3.7-3-6.8-6.8-6.8c-3.7,0-6.8,3-6.8,6.8
				C325.8,101.1,328.8,104.1,332.6,104.1z"/>
			<circle class="st0" cx="320.4" cy="114.9" r="6.8"/>
			<circle class="st0" cx="353" cy="162.5" r="6.8"/>
			<path class="st0" d="M341.7,167.4c-3.7,0-6.8,3-6.8,6.8c0,3.7,3,6.8,6.8,6.8c3.7,0,6.8-3,6.8-6.8
				C348.4,170.4,345.4,167.4,341.7,167.4z"/>
			<circle class="st0" cx="331.1" cy="161" r="6.8"/>
			<circle class="st0" cx="320.4" cy="173.7" r="6.8"/>
			<circle class="st0" cx="309.8" cy="185.1" r="6.8"/>
			<path class="st0" d="M299,167.5c-3.7,0-6.8,3-6.8,6.8c0,3.7,3,6.8,6.8,6.8c3.7,0,6.8-3,6.8-6.8
				C305.7,170.6,302.7,167.5,299,167.5z"/>
			<circle class="st0" cx="298.3" cy="195.4" r="6.8"/>
			<circle class="st0" cx="285.7" cy="184.9" r="6.8"/>
			<path class="st0" d="M285.8,213.3c3.7,0,6.8-3,6.8-6.8c0-3.7-3-6.8-6.8-6.8c-3.7,0-6.8,3-6.8,6.8
				C279,210.3,282,213.3,285.8,213.3z"/>
			<circle class="st0" cx="271.5" cy="195.3" r="6.8"/>
			<circle class="st0" cx="272.6" cy="218" r="6.8"/>
			<path class="st0" d="M256.4,214.4c3.7,0,6.8-3,6.8-6.8c0-3.7-3-6.8-6.8-6.8c-3.7,0-6.8,3.1-6.8,6.8
				C249.6,211.4,252.7,214.4,256.4,214.4z"/>
			<circle class="st0" cx="258.3" cy="230.9" r="6.8"/>
			<path class="st0" d="M243.1,251.4c3.7,0,6.8-3,6.8-6.8c0-3.7-3.1-6.8-6.8-6.8c-3.7,0-6.8,3-6.8,6.8
				C236.3,248.4,239.3,251.4,243.1,251.4z"/>
			<path class="st0" d="M230.3,233.5c0-3.7-3-6.8-6.8-6.8s-6.8,3-6.8,6.8c0,3.7,3,6.8,6.8,6.8C227.3,240.2,230.3,237.2,230.3,233.5z
				"/>
			<circle class="st0" cx="203.3" cy="221.7" r="6.8"/>
			<circle class="st0" cx="222" cy="208.3" r="6.8"/>
			<path class="st0" d="M202.1,202c3.7,0,6.8-3,6.8-6.8c0-3.7-3-6.8-6.8-6.8c-3.7,0-6.8,3-6.8,6.8C195.4,199,198.4,202,202.1,202z"
				/>
			<path class="st0" d="M240.5,226.8c3.7,0,6.8-3,6.8-6.8c0-3.7-3-6.8-6.8-6.8c-3.7,0-6.8,3-6.8,6.8S236.8,226.8,240.5,226.8z"/>
			<circle class="st0" cx="206.7" cy="247.2" r="6.8"/>
			<path class="st0" d="M233.2,259c0-3.7-3-6.8-6.8-6.8c-3.7,0-6.8,3-6.8,6.8c0,3.7,3,6.7,6.8,6.7
				C230.1,265.8,233.2,262.8,233.2,259z"/>
			<path class="st0" d="M316.5,206.1c0-3.7-3-6.8-6.8-6.8c-3.7,0-6.8,3-6.8,6.8c0,3.7,3,6.8,6.8,6.8
				C313.5,212.9,316.5,209.9,316.5,206.1z"/>
			<circle class="st0" cx="320.4" cy="217.2" r="6.8"/>
			<circle class="st0" cx="309.2" cy="230" r="6.8"/>
			<path class="st0" d="M297.9,250.2c3.7,0,6.8-3,6.8-6.8c0-3.7-3-6.8-6.8-6.8c-3.7,0-6.8,3-6.8,6.8
				C291.2,247.2,294.2,250.2,297.9,250.2z"/>
			<path class="st0" d="M308.2,266.1c3.7,0,6.8-3,6.8-6.7c0-3.7-3-6.8-6.8-6.8c-3.7,0-6.8,3-6.8,6.8
				C301.4,263.1,304.4,266.1,308.2,266.1z"/>
			<path class="st0" d="M295.6,281.9c3.7,0,6.8-3,6.8-6.8c0-3.7-3-6.8-6.8-6.8c-3.7,0-6.8,3-6.8,6.8S291.9,281.9,295.6,281.9z"/>
			<path class="st0" d="M271,279.3c3.7,0,6.8-3,6.8-6.8c0-3.7-3-6.8-6.8-6.8s-6.8,3-6.8,6.8C264.2,276.3,267.3,279.3,271,279.3z"/>
			<path class="st0" d="M261.4,261.3c3.7,0,6.8-3,6.8-6.8c0-3.7-3-6.8-6.8-6.8c-3.7,0-6.8,3-6.8,6.8
				C254.6,258.3,257.7,261.3,261.4,261.3z"/>
			<circle class="st0" cx="285" cy="257.5" r="6.8"/>
			<path class="st0" d="M281.3,240.7c0-3.7-3-6.8-6.8-6.8c-3.7,0-6.8,3-6.8,6.8c0,3.7,3,6.8,6.8,6.8
				C278.3,247.4,281.3,244.4,281.3,240.7z"/>
			<path class="st0" d="M287.1,235.2c3.7,0,6.8-3,6.8-6.8c0-3.7-3-6.8-6.8-6.8c-3.7,0-6.8,3-6.8,6.8
				C280.4,232.1,283.4,235.2,287.1,235.2z"/>
			<path class="st0" d="M298.9,223.5c3.7,0,6.8-3,6.8-6.8c0-3.7-3-6.8-6.8-6.8c-3.7,0-6.8,3-6.8,6.8
				C292.2,220.5,295.2,223.5,298.9,223.5z"/>
			<path class="st0" d="M253.4,268.5c0-3.7-3-6.8-6.8-6.8s-6.8,3-6.8,6.8c0,3.7,3,6.8,6.8,6.8C250.4,275.3,253.4,272.2,253.4,268.5z
				"/>
			<path class="st0" d="M256.7,282.5c-3.7,0-6.8,3-6.8,6.8c0,3.7,3,6.8,6.8,6.8c3.7,0,6.8-3,6.8-6.8
				C263.5,285.5,260.5,282.5,256.7,282.5z"/>
			<path class="st0" d="M232.3,277.5c-3.7,0-6.8,3-6.8,6.8c0,3.7,3,6.8,6.8,6.8c3.7,0,6.8-3,6.8-6.8
				C239,280.6,236,277.5,232.3,277.5z"/>
			<path class="st0" d="M282.2,285.2c-3.7,0-6.8,3-6.8,6.8c0,3.7,3,6.8,6.8,6.8c3.8,0,6.8-3,6.8-6.8
				C288.9,288.3,285.9,285.2,282.2,285.2z"/>
			<path class="st0" d="M342.6,141c-3.7,0-6.8,3-6.8,6.8c0,3.7,3,6.8,6.8,6.8c3.7,0,6.8-3,6.8-6.8C349.4,144,346.3,141,342.6,141z"
				/>
			<path class="st0" d="M390.5,146.6c0,3.7,3,6.8,6.8,6.8c3.7,0,6.8-3,6.8-6.8c0-3.7-3-6.8-6.8-6.8
				C393.5,139.8,390.5,142.9,390.5,146.6z"/>
			<path class="st0" d="M382.3,153.7c-3.7,0-6.8,3-6.8,6.8c0,3.7,3,6.8,6.8,6.8c3.7,0,6.8-3,6.8-6.8
				C389,156.7,386,153.7,382.3,153.7z"/>
			<path class="st0" d="M399.8,177.6c3.7,0,6.8-3,6.8-6.8c0-3.7-3-6.8-6.8-6.8c-3.7,0-6.8,3-6.8,6.8
				C393,174.6,396,177.6,399.8,177.6z"/>
			<path class="st0" d="M400.8,188.5c-3.7,0-6.7,3-6.7,6.8c0,3.7,3,6.8,6.7,6.8c3.7,0,6.8-3,6.8-6.8
				C407.6,191.5,404.6,188.5,400.8,188.5z"/>
			<path class="st0" d="M377.1,183.6c0,3.7,3,6.7,6.8,6.7c3.7,0,6.8-3,6.8-6.7c0-3.7-3-6.8-6.8-6.8S377.1,179.9,377.1,183.6z"/>
			<circle class="st0" cx="368.2" cy="173.2" r="6.8"/>
		</g>
	</g>
	<g>
		<g>
			<path class="st0" d="M165.8,516.4c-9.1-2.3-13.7-3.3-13.7-9.1c0-5.2,4.1-8.5,10.4-8.5c9.3,0,10,7.4,10.2,9.6h13
				c0-2.1,0-7.2-3.6-11.7c-4.7-5.9-12.5-7.4-19-7.4c-17.5,0-24.9,9.2-24.9,19.5c0,10.9,8.2,15.3,23.2,19c8,1.9,11.9,2.9,11.9,8.5
				c0,5.3-4.6,8.8-11.9,8.8c-11.6,0-11.4-9-11.4-11.9h-13.8c0.1,6.1,0.3,21.6,24.4,21.6c17.4,0,26.8-9.2,26.8-20.5
				C187.5,522,176.7,519,165.8,516.4z"/>
			<path class="st0" d="M213.2,496.2l-12.8,4.7v8.7H192v8.5h8.5v24.1c0,3.7,0,11.9,13,11.9c2.1,0,5.8-0.3,10-1.4v-8.4
				c-1.6,0.2-2.4,0.3-4.3,0.3c-5.8,0-5.8-2.5-5.8-6.5v-19.9h10.4v-8.5h-10.4L213.2,496.2L213.2,496.2z"/>
			<path class="st0" d="M271.8,538.3v-29h-13.3v22.2c0,7.5,0,13.7-8.3,13.7c-6.9,0-6.9-5.8-6.9-9.7v-26.2h-13.1v27.4
				c0,2.2,0,8.3,2.9,11.8c2.5,3.2,7.3,5.9,13.3,5.9c8.4,0,11.7-5.1,13-7l0.4,5.8h12.5c-0.2-1.2-0.3-2-0.4-3.2
				C272,548.9,271.9,547.8,271.8,538.3z"/>
			<path class="st0" d="M331.9,496.2l-12.8,4.7v8.6h-18.9v-13.3l-12.8,4.7v8.6H279v8.5h8.5v24.1c0,3.7,0,11.8,13,11.8
				c2.1,0,5.8-0.3,10-1.4v-8.5c-1.6,0.2-2.4,0.3-4.4,0.3c-5.7,0-5.7-2.5-5.8-6.5v-19.9h18.9v24.1c0,3.7,0,11.8,13,11.8
				c2.1,0,5.8-0.3,10-1.4v-8.5c-1.6,0.2-2.4,0.3-4.4,0.3c-5.7,0-5.7-2.5-5.8-6.5v-19.9h10.4v-8.5h-10.4V496.2z"/>
			<path class="st0" d="M379.3,515.3c-1.3-1.9-4.3-6.3-12.3-6.3c-12.6,0-18.8,10.6-18.8,21.8c0,10.6,5.9,21.6,18.6,21.6
				c3.1,0,7.7-0.6,11.8-6c-0.1,6.7-0.1,8.3-0.6,10.4c-0.9,3.9-4.2,5.8-8,5.8c-6.9,0-7.5-4.8-7.6-6.1H350
				c0.8,13.3,13.1,14.1,19.4,14.1c8.4,0,22-1.6,22-17.8v-32.5c0-4.4,0.3-7.4,0.6-10.9h-12.1L379.3,515.3z M369.7,543.6
				c-8.6,0-8.6-10.6-8.6-12.8c0-9.4,4-13.2,8.9-13.2c7.9,0,8.8,8.4,8.8,13.4C378.8,533,378.8,543.6,369.7,543.6z"/>
			<path class="st0" d="M437.9,524.5c0-2-0.1-7.2-3.1-10.8c-4.3-5.1-12-5.7-15.7-5.7c-4.2,0-9.3,0.7-13.3,3.6
				c-4.6,3.3-4.9,8-4.9,10.4h12.6c0-1,0-2.4,1-3.9c1.1-1.6,3-2.4,4.9-2.4c1.2,0,4.6,0.5,5.7,3.7c0.5,1.6,0.6,3,0.6,5.8
				c-4.3,0-12,0-17.4,2.5c-8.1,3.7-9.3,10.2-9.3,13.7c0,3.5,1.2,7,3.8,9.7c1.7,1.6,4.6,3.5,11,3.5c2.4,0,8.3,0,13.1-7.1
				c0,1.3,0,3.3,0.4,6H439c-0.8-3.7-1-7.4-1-11.2L437.9,524.5z M423.3,543.4c-1.2,1.4-3.1,2.5-5.5,2.5c-4.3,0-6.3-3.3-6.3-6.3
				c0-5.2,5.9-7.8,14.2-7.1C425.7,537.3,425.5,540.6,423.3,543.4z"/>
			<path class="st0" d="M504.2,518.1v-8.5h-10.5v-13.3l-12.8,4.7v8.7h-8.4l0,0c-8.3,0.3-11,4.6-12.5,8l-0.3-8.4h-12.1
				c0.3,2.5,0.6,8.9,0.6,11v33.2h12.9v-21.7c0-5.5-0.2-13.5,13.8-13.5h5.9v24.1c0,3.7,0,11.8,13,11.8c2.1,0,5.8-0.3,10-1.4v-8.5
				c-1.6,0.2-2.4,0.3-4.4,0.3c-5.8,0-5.8-2.5-5.8-6.5v-19.9L504.2,518.1L504.2,518.1L504.2,518.1L504.2,518.1z"/>
		</g>
		<g>
			<g>
				<path class="st0" d="M103.9,427.2c0,6.4-0.7,8.9-2,10.8c-3.5,5.5-10.1,5.6-12.3,5.6c-13.3,0-13.8-8.7-13.8-15.7v-40H62.1v39.3
					c0,5.9,0.2,10.8,3.3,15.7c6,9.6,17.6,11,24,11c12.8,0,27.9-6.1,27.9-25V388h-13.3V427.2z"/>
				<path class="st0" d="M153.9,406.1c-9.7,0-13.2,5.7-14.4,7.8l-0.4-6.7h-12.5c0.3,3.1,0.3,7.9,0.3,8.1v36.5H140v-26.1
					c0-3.5,0.8-5.6,1.6-6.8c1.4-2.1,4-3.4,6.8-3.4c3.4,0,5.4,1.8,6.4,3.8c0.7,1.4,0.7,3,0.7,4.9v27.7h13.3v-24.1
					c0-8.3-0.3-10.6-1.2-13.3C166.3,411.4,162.6,406.1,153.9,406.1z"/>
				<rect x="178.6" y="407.2" class="st0" width="13" height="44.6"/>
				<polygon class="st0" points="221.8,437.5 211.8,407.3 197.9,407.3 214.2,451.8 228.6,451.8 244.6,407.3 232,407.3 				"/>
				<path class="st0" d="M268.8,405.8c-4.8,0-9.1,1.4-12.5,3.7c-7.5,5.2-9.3,13.8-9.3,21c0,7.1,1.7,13.1,5.7,17.3
					c4.7,4.8,11.9,5.5,15.7,5.5c6.5,0,12.3-1.7,15.6-5.2c3.6-3.8,4-7.6,4.2-9.7h-11.9c-1.2,5-4.5,6.2-7.8,6.2c-9.1,0-9.1-9-9.1-11.9
					h29.9c0.2-3.7,0.3-10.2-2.6-16.3C282.8,408.3,275.2,405.8,268.8,405.8z M260,424.7c0.3-5.2,2.6-9.9,8.4-9.9
					c7.6,0,7.7,7.9,7.7,9.9H260z"/>
				<path class="st0" d="M309.7,415.7l-0.3-8.5h-12.2c0.3,2.5,0.6,9,0.6,11.1v33.5h13v-21.9c0-5.5,0.8-12.3,14-11.1v-11.7
					C314.3,406.5,311.4,411.9,309.7,415.7z"/>
				<path class="st0" d="M355.9,425.4l-8-2.2c-3.9-1-6.1-1.7-6.1-4.7c0-2.7,2.6-4.4,6.2-4.4c2,0,6,0.4,6.4,5.3h11.9
					c-0.4-8.9-7.7-13.1-16.9-13.1c-11.5,0-19.4,5.3-19.4,13.9c0,9.1,7.6,11.3,11.3,12.3l8.1,2.2c5.1,1.4,6.2,3,6.2,5
					c0,2.7-2.2,5.3-6.9,5.3c-5.5,0-7.2-3.2-7.4-6.1h-12.3c0.1,2.1,0.4,5.6,3.3,8.7c4.1,4.2,9.5,5.5,15.3,5.5
					c13.8,0,20.4-7.7,20.4-15.4C367.8,431.7,364,427.6,355.9,425.4z"/>
				<rect x="376.1" y="407.2" class="st0" width="13" height="44.6"/>
				<path class="st0" d="M417.9,391.7l-13,2.4v13.5h-8.5v8.6h8.5v24.4c0,3.7,0,12,13.1,12c2.1,0,5.9-0.3,10.1-1.4v-8.5
					c-1.6,0.2-2.4,0.3-4.4,0.3c-5.8,0-5.8-2.6-5.9-6.6v-20.1h10.6v-8.6h-10.6V391.7z"/>
				<path class="st0" d="M382.7,387.5c-3.9,0-7,3.2-7,7c0,3.9,3.1,7,7,7c3.9,0,7-3.2,7-7C389.7,390.7,386.6,387.5,382.7,387.5z"/>
				<path class="st0" d="M185.1,387.5c-3.9,0-7,3.2-7,7c0,3.9,3.1,7,7,7c3.9,0,7-3.2,7-7C192.1,390.7,189,387.5,185.1,387.5z"/>
			</g>
			<g>
				<path class="st0" d="M447.3,407.1l11.5,30.7l11.1-30.7h13.5l-25.6,61.1h-13.2l7.8-17.7l-18.6-43.4
					C433.7,407.1,447.3,407.1,447.3,407.1z"/>
				<path class="st0" d="M540,412.1c0.8,0.8,2.7,3,3.9,5.4c0.9,1.8,1.5,4.1,1.6,4.4c0.3,1.2,1,3.8,1,7.1c0,1.8-0.2,3.4-0.5,5.2
					c-0.6,4.2-2.1,8.9-6.4,13c-3.4,3.3-8.3,5.9-16.2,5.9c-7.6,0-12.1-2.2-15.6-5.1c-1.6-1.5-2.6-2.7-3-3.2c-2.4-3.2-4.2-8-4.2-15.5
					c0-1.8,0-5.5,2.1-10.2c0.8-2,1.6-3.5,3.3-5.5c3.3-3.7,8.5-7.1,16.6-7.5c1.6-0.1,8-0.3,13.8,3.2c0.8,0.4,1.3,0.9,2,1.4L540,412.1
					z M518.1,416.7c-1.2,1-1.8,1.9-2.2,2.4c-1.5,2.4-2.5,6-2.5,11.5c0,0.4-0.4,7,3.1,10.9c0.3,0.3,1.2,1.2,1.8,1.7
					c1,0.6,2.7,1.5,5.1,1.5c0.5,0,1.4-0.1,2.5-0.4c3-1,4.7-3.3,5.5-4.7c2.2-3.8,2.1-10.3,2.1-10.6c0-0.7,0-5.2-1.5-8.5
					c-0.7-1.6-1.5-2.5-2-3c-0.8-0.9-1.6-1.4-2-1.6c-0.7-0.4-2.7-1.2-5-1.1C520.6,414.9,518.9,416,518.1,416.7z"/>
				<path class="st0" d="M578.2,397.9c-2.9-0.1-5.2,0-6.4,0.3c-2.5,0.7-2.5,3.5-2.5,5v4.1h8.3v8.5h-8.2v36.1h-12.7v-36.1h-8.2v-8.5
					h8.3v-5.1c0-0.3,0.1-3.8,1.1-6.2c2-5.1,6.4-6.8,14.3-6.8c2,0,4.1,0.2,6.2,0.3L578.2,397.9z"/>
			</g>
		</g>
	</g>
</g>
</svg>
